<?xml version="1.0" encoding="UTF-8" standalone="no"?>
<svg width="20" height="20" viewBox="0 0 20 20" fill="none" xmlns="http://www.w3.org/2000/svg">
  <path d="M1 1h2v2H1V1z" fill="currentColor" fill-opacity="0.1"/>
  <path d="M5 1h2v2H5V1z" fill="currentColor" fill-opacity="0.1"/>
  <path d="M9 1h2v2H9V1z" fill="currentColor" fill-opacity="0.1"/>
  <path d="M13 1h2v2h-2V1z" fill="currentColor" fill-opacity="0.1"/>
  <path d="M17 1h2v2h-2V1z" fill="currentColor" fill-opacity="0.1"/>
  <path d="M1 5h2v2H1V5z" fill="currentColor" fill-opacity="0.1"/>
  <path d="M5 5h2v2H5V5z" fill="currentColor" fill-opacity="0.1"/>
  <path d="M9 5h2v2H9V5z" fill="currentColor" fill-opacity="0.1"/>
  <path d="M13 5h2v2h-2V5z" fill="currentColor" fill-opacity="0.1"/>
  <path d="M17 5h2v2h-2V5z" fill="currentColor" fill-opacity="0.1"/>
  <path d="M1 9h2v2H1V9z" fill="currentColor" fill-opacity="0.1"/>
  <path d="M5 9h2v2H5V9z" fill="currentColor" fill-opacity="0.1"/>
  <path d="M9 9h2v2H9V9z" fill="currentColor" fill-opacity="0.1"/>
  <path d="M13 9h2v2h-2V9z" fill="currentColor" fill-opacity="0.1"/>
  <path d="M17 9h2v2h-2V9z" fill="currentColor" fill-opacity="0.1"/>
  <path d="M1 13h2v2H1v-2z" fill="currentColor" fill-opacity="0.1"/>
  <path d="M5 13h2v2H5v-2z" fill="currentColor" fill-opacity="0.1"/>
  <path d="M9 13h2v2H9v-2z" fill="currentColor" fill-opacity="0.1"/>
  <path d="M13 13h2v2h-2v-2z" fill="currentColor" fill-opacity="0.1"/>
  <path d="M17 13h2v2h-2v-2z" fill="currentColor" fill-opacity="0.1"/>
  <path d="M1 17h2v2H1v-2z" fill="currentColor" fill-opacity="0.1"/>
  <path d="M5 17h2v2H5v-2z" fill="currentColor" fill-opacity="0.1"/>
  <path d="M9 17h2v2H9v-2z" fill="currentColor" fill-opacity="0.1"/>
  <path d="M13 17h2v2h-2v-2z" fill="currentColor" fill-opacity="0.1"/>
  <path d="M17 17h2v2h-2v-2z" fill="currentColor" fill-opacity="0.1"/>
</svg>
